<svg xmlns="http://www.w3.org/2000/svg" xmlns:xlink="http://www.w3.org/1999/xlink" width="500" zoomAndPan="magnify" viewBox="0 0 375 374.999991" height="500" preserveAspectRatio="xMidYMid meet" version="1.0"><defs><g/><clipPath id="684767a228"><path d="M 48 140 L 336 140 L 336 241 L 48 241 Z M 48 140 " clip-rule="nonzero"/></clipPath><clipPath id="9977919bd2"><path d="M 42.316406 163.183594 L 330.050781 125.054688 L 342.367188 217.992188 L 54.632812 256.121094 Z M 42.316406 163.183594 " clip-rule="nonzero"/></clipPath><clipPath id="ae89b2e7da"><path d="M 42.316406 163.183594 L 330.050781 125.054688 L 342.367188 217.992188 L 54.632812 256.121094 Z M 42.316406 163.183594 " clip-rule="nonzero"/></clipPath><clipPath id="395b33598d"><path d="M 45 153 L 71.761719 153 L 71.761719 178.46875 L 45 178.46875 Z M 45 153 " clip-rule="nonzero"/></clipPath><clipPath id="cfb4e9afb1"><path d="M 38 177.558594 L 51.480469 177.558594 L 51.480469 190.308594 L 38 190.308594 Z M 38 177.558594 " clip-rule="nonzero"/></clipPath><clipPath id="1efd4fc284"><path d="M 269 117 L 291 117 L 291 137.699219 L 269 137.699219 Z M 269 117 " clip-rule="nonzero"/></clipPath><clipPath id="aafeaac6d0"><path d="M 301.164062 215.496094 L 314.664062 215.496094 L 314.664062 228.246094 L 301.164062 228.246094 Z M 301.164062 215.496094 " clip-rule="nonzero"/></clipPath></defs><rect x="-37.5" width="450" fill="#ffffff" y="-37.499999" height="449.999989" fill-opacity="1"/><rect x="-37.5" width="450" fill="#ffffff" y="-37.499999" height="449.999989" fill-opacity="1"/><g clip-path="url(#684767a228)"><g clip-path="url(#9977919bd2)"><g clip-path="url(#ae89b2e7da)"><path fill="#5658cb" d="M 185.984375 144.148438 C 106.726562 154.648438 45.226562 183.914062 48.613281 209.476562 C 52 235.039062 119 247.277344 198.257812 236.773438 C 277.515625 226.269531 339.015625 197.007812 335.628906 171.445312 C 332.238281 145.882812 265.242188 133.644531 185.984375 144.148438 Z M 198.070312 235.351562 C 131.933594 244.117188 75.660156 231.125 72.375 206.355469 C 69.09375 181.585938 120.039062 154.359375 186.175781 145.59375 C 252.3125 136.832031 308.585938 149.820312 311.871094 174.59375 C 315.152344 199.363281 264.199219 226.5625 198.066406 235.324219 Z M 198.070312 235.351562 " fill-opacity="1" fill-rule="nonzero"/></g></g></g><path stroke-linecap="butt" transform="matrix(2.039349, 0, 0, 2.039349, 40.033892, 114.225014)" fill="none" stroke-linejoin="miter" d="M 56.318366 15.856766 C 57.950321 14.718995 59.691455 13.86854 61.539854 13.303485 C 63.388253 12.730769 65.27113 12.445368 67.1904 12.445368 C 68.692104 12.445368 70.08846 12.623504 71.383297 12.977861 C 72.68388 13.334132 73.804412 13.834062 74.741062 14.475734 C 75.687289 15.109745 76.424733 15.856766 76.95531 16.714883 C 77.483971 17.565338 77.750217 18.486664 77.750217 19.475031 C 77.750217 21.401963 76.95914 22.934314 75.378903 24.072085 C 73.800581 25.207941 71.695513 25.776826 69.065615 25.776826 C 68.318594 25.776826 67.659683 25.751925 67.085051 25.698293 C 66.521912 25.646576 65.908971 25.533565 65.25006 25.361176 C 64.591149 25.179209 63.83455 24.918709 62.984095 24.579677 C 62.13364 24.240644 61.049502 23.784769 59.729764 23.212053 C 59.660808 23.39402 59.62633 23.547255 59.62633 23.667927 C 59.62633 23.790516 59.62633 23.907357 59.62633 24.020368 C 59.62633 25.008735 60.371436 26.054565 61.865479 27.157858 C 61.968912 27.226814 62.072346 27.301516 62.177695 27.378133 C 62.290706 27.449005 62.50332 27.583085 62.815537 27.782291 C 63.13733 27.973835 63.610444 28.264982 64.234877 28.655731 C 64.85931 29.044566 65.757651 29.578973 66.9299 30.257039 C 68.994744 31.498243 70.488786 32.839051 71.408197 34.279461 C 72.337185 35.719872 72.802637 37.399712 72.802637 39.318982 C 72.802637 41.383826 72.337185 43.272449 71.408197 44.981021 C 70.488786 46.683846 69.17288 48.145326 67.464308 49.369292 C 65.75382 50.602835 63.717708 51.552893 61.357887 52.221381 C 58.996151 52.897531 56.373914 53.236564 53.493093 53.236564 C 50.966629 53.236564 48.679594 52.958825 46.63199 52.403348 C 44.592047 51.855532 42.833674 51.08361 41.358785 50.085666 C 39.881982 49.095384 38.746126 47.890573 37.947388 46.465486 C 37.14865 45.042315 36.750238 43.479316 36.750238 41.778406 C 36.750238 40.355235 37.049047 39.024004 37.648579 37.780884 C 38.255774 36.532018 39.075582 35.438302 40.108004 34.501652 C 41.142341 33.555425 42.347152 32.816066 43.728184 32.287404 C 45.116877 31.749166 46.609005 31.481004 48.206481 31.481004 C 49.238903 31.481004 50.250255 31.597846 51.240537 31.83153 C 52.238481 32.057552 53.119583 32.35636 53.883843 32.729871 C 54.655765 33.103381 55.280198 33.53244 55.759058 34.018961 C 56.236003 34.495906 56.475432 34.982427 56.475432 35.476611 C 56.475432 35.660493 56.465855 35.802235 56.448616 35.907585 C 56.431377 36.011018 56.370083 36.120198 56.26665 36.233209 C 56.1613 36.336643 55.992742 36.463062 55.759058 36.610551 C 55.523459 36.748462 55.211242 36.922767 54.820493 37.13155 C 54.038994 37.5223 53.650159 38.181211 53.650159 39.110199 C 53.650159 39.926176 54.004516 40.619565 54.717059 41.192282 C 55.429603 41.757336 56.301127 42.038906 57.333549 42.038906 C 58.47132 42.038906 59.430955 41.713281 60.210539 41.062032 C 60.992038 40.403121 61.382788 39.590974 61.382788 38.627508 C 61.382788 38.202281 61.310001 37.794292 61.162512 37.403543 C 61.022685 37.012793 60.785171 36.614382 60.446138 36.206393 C 60.107105 35.788827 59.643569 35.352107 59.051698 34.890486 C 58.47132 34.430781 57.754946 33.898289 56.904491 33.289179 C 54.69982 31.83153 53.132991 30.456244 52.204003 29.163323 C 51.284592 27.860824 50.824886 26.393598 50.824886 24.761643 C 50.824886 24.0491 50.92832 23.355711 51.137103 22.677645 C 51.353548 22.001495 51.748128 21.093577 52.320845 19.957721 C 51.391856 19.566972 50.658243 19.310303 50.120005 19.18963 C 49.591344 19.067042 49.079921 19.007664 48.583822 19.007664 C 47.733367 19.007664 47.013162 19.262417 46.423207 19.775755 C 45.840913 20.287177 45.551682 20.934596 45.551682 21.714179 C 45.551682 22.426723 45.789197 23.009016 46.266141 23.459145 C 46.745001 23.901611 47.390504 24.15828 48.206481 24.227236 C 49.135469 24.332585 49.600921 24.688857 49.600921 25.296051 C 49.600921 25.721278 49.405546 26.112028 49.014796 26.4683 C 48.624047 26.822656 48.099216 27.14445 47.43839 27.431766 C 46.779479 27.717166 46.011387 27.939357 45.134116 28.094508 C 44.266422 28.251574 43.354673 28.330107 42.400784 28.330107 C 40.872264 28.330107 39.48357 28.125155 38.232788 27.717166 C 36.991584 27.309178 35.924684 26.73263 35.030174 25.985609 C 34.145241 25.238588 33.455683 24.353655 32.959584 23.328895 C 32.465401 22.296473 32.218309 21.154871 32.218309 19.906005 C 32.218309 18.6648 32.48264 17.500213 33.013216 16.416074 C 33.541878 15.33002 34.258252 14.389539 35.160424 13.590801 C 36.072173 12.792063 37.139073 12.161883 38.363038 11.702178 C 39.596581 11.234811 40.923981 10.999212 42.347152 10.999212 C 43.025218 10.999212 43.663059 11.039436 44.262591 11.116054 C 44.869786 11.186925 45.528697 11.321006 46.24124 11.520211 C 46.951868 11.711755 47.742945 11.976086 48.610639 12.315119 C 49.478333 12.644574 50.503093 13.079379 51.683003 13.617617 C 52.282536 13.86854 52.786296 14.094562 53.194285 14.293767 C 53.602273 14.485311 53.973869 14.663447 54.312901 14.828175 C 54.651934 14.983326 54.973728 15.140392 55.276367 15.295542 C 55.580922 15.452608 55.927617 15.638406 56.318366 15.856766 Z M 63.296312 19.423314 C 65.684865 20.38678 67.337889 20.869471 68.2573 20.869471 C 68.648049 20.869471 68.994744 20.746882 69.299299 20.503622 C 69.603853 20.252699 69.755173 19.965383 69.755173 19.645505 C 69.755173 19.185799 69.477434 18.812289 68.921957 18.524973 C 68.374141 18.239572 67.69416 18.095914 66.878183 18.095914 C 65.636979 18.095914 64.44366 18.538381 63.296312 19.423314 Z M 76.263836 33.028679 C 76.436225 32.212702 76.524336 31.645732 76.524336 31.323938 C 76.524336 30.576917 76.116347 29.973554 75.30037 29.513848 C 77.790441 27.449005 80.156009 26.414667 82.395157 26.414667 C 83.316484 26.414667 84.048181 26.64452 84.595997 27.106141 C 85.151474 27.565846 85.429213 28.207519 85.429213 29.033073 C 85.429213 29.310812 85.429213 29.506186 85.429213 29.619197 C 85.429213 29.722631 85.394735 29.860543 85.325779 30.034848 L 83.515689 38.524075 C 83.446733 38.809475 83.38927 39.079552 83.345215 39.330475 C 83.310737 39.573735 83.293498 39.782518 83.293498 39.956823 C 83.293498 40.495062 83.437156 40.92412 83.724472 41.245914 C 84.009873 41.558131 84.400622 41.713281 84.894805 41.713281 C 85.113166 41.713281 85.30854 41.68838 85.48093 41.636664 C 85.662897 41.583031 86.162826 41.414473 86.978803 41.127157 L 87.187586 41.127157 C 87.725825 41.127157 87.993986 41.431712 87.993986 42.038906 C 87.993986 42.6461 87.708586 43.272449 87.133954 43.914121 C 86.570815 44.548131 85.85061 45.134256 84.973339 45.672494 C 84.105644 46.201155 83.155587 46.643622 82.121249 46.999894 C 81.098405 47.356165 80.121531 47.534301 79.192543 47.534301 C 77.769371 47.534301 76.583714 47.133974 75.637487 46.335236 C 74.700837 45.536498 74.231555 44.513653 74.231555 43.262872 C 74.231555 42.73421 74.283272 42.217042 74.388621 41.713281 Z M 83.293498 16.337541 C 84.54428 16.337541 85.542224 16.666997 86.289245 17.327823 C 87.034351 17.979073 87.407862 18.837189 87.407862 19.906005 C 87.407862 20.547677 87.246965 21.154871 86.927087 21.727587 C 86.605293 22.292642 86.158995 22.786825 85.586279 23.212053 C 85.021224 23.63728 84.373806 23.98589 83.645939 24.254052 C 82.916157 24.522213 82.161474 24.65821 81.379974 24.65821 C 80.242203 24.65821 79.336201 24.336416 78.658135 23.694744 C 77.981985 23.051156 77.642952 22.19687 77.642952 21.12997 C 77.642952 20.49596 77.794272 19.896427 78.098827 19.333288 C 78.403382 18.758656 78.819032 18.251065 79.349609 17.808599 C 79.887847 17.35847 80.491211 17.002199 81.157783 16.741699 C 81.835849 16.471622 82.548392 16.337541 83.293498 16.337541 Z M 101.639576 26.792009 C 102.708391 26.792009 103.240883 27.288108 103.240883 28.276474 C 103.240883 28.849191 103.158519 29.431484 102.993792 30.02144 C 102.838641 30.603733 102.656674 31.036622 102.447891 31.323938 C 102.057142 31.749166 101.453778 31.96178 100.637801 31.96178 L 97.79912 31.96178 C 97.590337 32.846713 97.387301 33.710576 97.188095 34.553369 C 96.996551 35.386585 96.835654 36.158507 96.705404 36.871051 C 96.584732 37.581679 96.479382 38.194619 96.393188 38.706041 C 96.306993 39.217464 96.262938 39.583313 96.262938 39.799757 C 96.262938 40.477823 96.475552 41.002653 96.900779 41.376164 C 97.326007 41.747759 97.912131 41.935472 98.659152 41.935472 C 98.944553 41.935472 99.245277 41.891417 99.557493 41.805222 C 99.877372 41.70945 100.291107 41.57537 100.794867 41.401065 C 101.254573 41.18462 101.662561 41.07544 102.016918 41.07544 C 102.591549 41.07544 102.87695 41.379995 102.87695 41.987189 C 102.87695 42.9066 101.970947 44.009893 100.15511 45.295153 C 99.228038 45.971303 98.1688 46.496133 96.979312 46.869644 C 95.789824 47.243154 94.627153 47.428952 93.489382 47.428952 C 91.640983 47.428952 90.108631 46.921361 88.894243 45.906178 C 87.687516 44.890995 87.084153 43.619143 87.084153 42.090623 C 87.084153 41.736266 87.091814 41.410642 87.109053 41.115664 C 87.126292 40.811109 87.187586 40.447176 87.292936 40.021948 C 87.405946 39.587144 87.564928 39.035497 87.773711 38.367009 C 87.990155 37.690859 88.277471 36.78294 88.633743 35.647085 C 88.919143 34.752575 89.124095 34.074509 89.244768 33.614804 C 89.367356 33.155098 89.501437 32.603452 89.648926 31.96178 C 88.398144 31.823868 87.773711 31.237744 87.773711 30.203406 C 87.773711 29.883528 87.825428 29.578973 87.930777 29.293573 C 88.043788 29.006257 88.260232 28.676801 88.582026 28.303291 C 88.901905 27.92978 89.36161 27.477736 89.961142 26.949075 C 90.568337 26.410836 91.370906 25.734686 92.370765 24.918709 C 94.140631 23.424667 95.559972 22.353936 96.626871 21.702687 C 97.695686 21.04186 98.532733 20.712405 99.139928 20.712405 C 99.496199 20.712405 99.787346 20.829246 100.013368 21.064845 C 100.247052 21.288952 100.363893 21.580099 100.363893 21.93637 C 100.363893 22.005326 100.363893 22.076197 100.363893 22.145153 C 100.363893 22.214109 100.338993 22.340528 100.28536 22.522495 C 100.233644 22.6968 100.15128 22.96113 100.038269 23.317402 C 99.934835 23.671758 99.777769 24.171688 99.570902 24.81336 C 99.387019 25.420554 99.279755 25.824712 99.245277 26.023918 C 99.208883 26.215462 99.157167 26.472131 99.088211 26.792009 Z M 110.971596 39.74804 C 110.971596 40.355235 111.228265 40.872403 111.739687 41.297631 C 112.260687 41.722858 112.894697 41.935472 113.641719 41.935472 C 114.145479 41.935472 114.616677 41.891417 115.061059 41.805222 C 115.503526 41.70945 115.988132 41.558131 116.518709 41.349348 C 117.056947 41.132903 117.650733 40.845587 118.301983 40.489315 C 118.962809 40.134959 119.755801 39.690577 120.684789 39.161916 C 121.110017 38.910993 121.535244 38.784574 121.960472 38.784574 C 122.316743 38.784574 122.60789 38.901416 122.833912 39.1351 C 123.067596 39.361122 123.184437 39.63503 123.184437 39.956823 C 123.184437 41.127157 122.224802 42.481372 120.307447 44.017555 C 117.183366 46.499964 113.93095 47.743084 110.555946 47.743084 C 109.20173 47.743084 107.973934 47.528555 106.870641 47.103327 C 105.769263 46.6781 104.809628 46.074736 103.993651 45.295153 C 103.177674 44.513653 102.543663 43.588496 102.09162 42.521597 C 101.649153 41.452781 101.428878 40.282448 101.428878 39.00485 C 101.428878 37.330756 101.81005 35.729449 102.57431 34.200928 C 103.338571 32.674323 104.367162 31.333516 105.660083 30.178506 C 106.962582 29.023496 108.468117 28.098339 110.178604 27.404949 C 111.887176 26.709645 113.683858 26.362951 115.568651 26.362951 C 117.591355 26.362951 119.24821 26.880119 120.541131 27.912541 C 121.84363 28.937301 122.494879 30.268531 122.494879 31.910063 C 122.494879 33.185745 122.021766 34.365656 121.075539 35.45171 C 120.138889 36.535849 118.761688 37.451429 116.947767 38.19845 C 116.097312 38.5892 115.120438 38.893754 114.01906 39.110199 C 112.915767 39.318982 111.900584 39.422416 110.971596 39.422416 Z M 111.506004 34.631902 C 114.352347 34.204759 115.775518 33.40219 115.775518 32.222279 C 115.775518 31.866008 115.668253 31.574861 115.451809 31.350754 C 115.243026 31.115155 114.978695 30.998314 114.656902 30.998314 C 113.978836 30.998314 113.354403 31.337346 112.781686 32.013496 C 112.216632 32.691562 111.791404 33.563087 111.506004 34.631902 Z M 111.506004 34.631902 " stroke="#ffffff" stroke-width="3.999998" stroke-opacity="1" stroke-miterlimit="4"/><g fill="#5658cb" fill-opacity="1"><g transform="translate(92.674599, 210.074436)"><g><path d="M 62.21875 -63.515625 C 65.550781 -65.835938 69.101562 -67.578125 72.875 -68.734375 C 76.644531 -69.898438 80.488281 -70.484375 84.40625 -70.484375 C 87.445312 -70.484375 90.289062 -70.117188 92.9375 -69.390625 C 95.582031 -68.671875 97.863281 -67.65625 99.78125 -66.34375 C 101.707031 -65.039062 103.210938 -63.519531 104.296875 -61.78125 C 105.390625 -60.039062 105.9375 -58.15625 105.9375 -56.125 C 105.9375 -52.207031 104.320312 -49.085938 101.09375 -46.765625 C 97.863281 -44.441406 93.566406 -43.28125 88.203125 -43.28125 C 86.679688 -43.28125 85.335938 -43.332031 84.171875 -43.4375 C 83.015625 -43.550781 81.765625 -43.789062 80.421875 -44.15625 C 79.085938 -44.519531 77.550781 -45.046875 75.8125 -45.734375 C 74.070312 -46.421875 71.859375 -47.347656 69.171875 -48.515625 C 69.023438 -48.148438 68.953125 -47.835938 68.953125 -47.578125 C 68.953125 -47.328125 68.953125 -47.09375 68.953125 -46.875 C 68.953125 -44.84375 70.476562 -42.703125 73.53125 -40.453125 C 73.75 -40.316406 73.960938 -40.175781 74.171875 -40.03125 C 74.390625 -39.882812 74.828125 -39.609375 75.484375 -39.203125 C 76.140625 -38.804688 77.097656 -38.207031 78.359375 -37.40625 C 79.628906 -36.613281 81.460938 -35.53125 83.859375 -34.15625 C 88.066406 -31.613281 91.113281 -28.875 93 -25.9375 C 94.882812 -23 95.828125 -19.570312 95.828125 -15.65625 C 95.828125 -11.457031 94.882812 -7.613281 93 -4.125 C 91.113281 -0.644531 88.425781 2.34375 84.9375 4.84375 C 81.457031 7.34375 77.304688 9.28125 72.484375 10.65625 C 67.671875 12.03125 62.328125 12.71875 56.453125 12.71875 C 51.304688 12.71875 46.644531 12.15625 42.46875 11.03125 C 38.300781 9.914062 34.710938 8.34375 31.703125 6.3125 C 28.691406 4.28125 26.367188 1.816406 24.734375 -1.078125 C 23.109375 -3.984375 22.296875 -7.175781 22.296875 -10.65625 C 22.296875 -13.5625 22.910156 -16.28125 24.140625 -18.8125 C 25.378906 -21.351562 27.046875 -23.582031 29.140625 -25.5 C 31.242188 -27.425781 33.707031 -28.929688 36.53125 -30.015625 C 39.363281 -31.109375 42.414062 -31.65625 45.6875 -31.65625 C 47.78125 -31.65625 49.84375 -31.414062 51.875 -30.9375 C 53.90625 -30.46875 55.703125 -29.851562 57.265625 -29.09375 C 58.828125 -28.332031 60.097656 -27.460938 61.078125 -26.484375 C 62.054688 -25.503906 62.546875 -24.507812 62.546875 -23.5 C 62.546875 -23.132812 62.523438 -22.84375 62.484375 -22.625 C 62.453125 -22.40625 62.328125 -22.1875 62.109375 -21.96875 C 61.890625 -21.75 61.539062 -21.492188 61.0625 -21.203125 C 60.59375 -20.921875 59.960938 -20.5625 59.171875 -20.125 C 57.578125 -19.320312 56.78125 -17.976562 56.78125 -16.09375 C 56.78125 -14.425781 57.503906 -13.007812 58.953125 -11.84375 C 60.398438 -10.6875 62.175781 -10.109375 64.28125 -10.109375 C 66.601562 -10.109375 68.5625 -10.78125 70.15625 -12.125 C 71.75 -13.46875 72.546875 -15.117188 72.546875 -17.078125 C 72.546875 -17.941406 72.398438 -18.773438 72.109375 -19.578125 C 71.816406 -20.378906 71.328125 -21.195312 70.640625 -22.03125 C 69.953125 -22.863281 69.007812 -23.75 67.8125 -24.6875 C 66.613281 -25.632812 65.144531 -26.722656 63.40625 -27.953125 C 58.914062 -30.921875 55.726562 -33.726562 53.84375 -36.375 C 51.957031 -39.03125 51.015625 -42.023438 51.015625 -45.359375 C 51.015625 -46.804688 51.226562 -48.21875 51.65625 -49.59375 C 52.09375 -50.96875 52.894531 -52.816406 54.0625 -55.140625 C 52.175781 -55.941406 50.6875 -56.46875 49.59375 -56.71875 C 48.507812 -56.976562 47.457031 -57.109375 46.4375 -57.109375 C 44.695312 -57.109375 43.226562 -56.582031 42.03125 -55.53125 C 40.84375 -54.476562 40.25 -53.15625 40.25 -51.5625 C 40.25 -50.101562 40.738281 -48.921875 41.71875 -48.015625 C 42.695312 -47.109375 44.019531 -46.582031 45.6875 -46.4375 C 47.570312 -46.21875 48.515625 -45.492188 48.515625 -44.265625 C 48.515625 -43.398438 48.113281 -42.601562 47.3125 -41.875 C 46.507812 -41.144531 45.4375 -40.488281 44.09375 -39.90625 C 42.757812 -39.332031 41.203125 -38.878906 39.421875 -38.546875 C 37.648438 -38.222656 35.785156 -38.0625 33.828125 -38.0625 C 30.710938 -38.0625 27.882812 -38.476562 25.34375 -39.3125 C 22.800781 -40.144531 20.625 -41.320312 18.8125 -42.84375 C 17 -44.375 15.582031 -46.191406 14.5625 -48.296875 C 13.550781 -50.398438 13.046875 -52.71875 13.046875 -55.25 C 13.046875 -57.789062 13.585938 -60.164062 14.671875 -62.375 C 15.765625 -64.582031 17.234375 -66.503906 19.078125 -68.140625 C 20.929688 -69.773438 23.109375 -71.0625 25.609375 -72 C 28.109375 -72.945312 30.8125 -73.421875 33.71875 -73.421875 C 35.09375 -73.421875 36.394531 -73.347656 37.625 -73.203125 C 38.863281 -73.054688 40.207031 -72.78125 41.65625 -72.375 C 43.101562 -71.976562 44.710938 -71.4375 46.484375 -70.75 C 48.265625 -70.0625 50.351562 -69.175781 52.75 -68.09375 C 53.976562 -67.582031 55.007812 -67.125 55.84375 -66.71875 C 56.6875 -66.320312 57.453125 -65.960938 58.140625 -65.640625 C 58.828125 -65.316406 59.476562 -64.988281 60.09375 -64.65625 C 60.707031 -64.332031 61.414062 -63.953125 62.21875 -63.515625 Z M 76.46875 -56.234375 C 81.320312 -54.273438 84.691406 -53.296875 86.578125 -53.296875 C 87.378906 -53.296875 88.085938 -53.546875 88.703125 -54.046875 C 89.316406 -54.554688 89.625 -55.140625 89.625 -55.796875 C 89.625 -56.734375 89.0625 -57.492188 87.9375 -58.078125 C 86.8125 -58.660156 85.414062 -58.953125 83.75 -58.953125 C 81.207031 -58.953125 78.78125 -58.046875 76.46875 -56.234375 Z M 76.46875 -56.234375 "/></g></g></g><g fill="#5658cb" fill-opacity="1"><g transform="translate(187.834337, 210.074436)"><g><path d="M 7.71875 -28.5 C 8.082031 -30.164062 8.265625 -31.328125 8.265625 -31.984375 C 8.265625 -33.503906 7.429688 -34.734375 5.765625 -35.671875 C 10.835938 -39.878906 15.660156 -41.984375 20.234375 -41.984375 C 22.117188 -41.984375 23.625 -41.507812 24.75 -40.5625 C 25.875 -39.625 26.4375 -38.320312 26.4375 -36.65625 C 26.4375 -36.070312 26.4375 -35.671875 26.4375 -35.453125 C 26.4375 -35.234375 26.363281 -34.945312 26.21875 -34.59375 L 22.515625 -17.296875 C 22.367188 -16.710938 22.257812 -16.164062 22.1875 -15.65625 C 22.113281 -15.15625 22.078125 -14.722656 22.078125 -14.359375 C 22.078125 -13.265625 22.363281 -12.390625 22.9375 -11.734375 C 23.519531 -11.085938 24.320312 -10.765625 25.34375 -10.765625 C 25.78125 -10.765625 26.175781 -10.816406 26.53125 -10.921875 C 26.894531 -11.035156 27.910156 -11.382812 29.578125 -11.96875 L 30.015625 -11.96875 C 31.109375 -11.96875 31.65625 -11.347656 31.65625 -10.109375 C 31.65625 -8.878906 31.070312 -7.609375 29.90625 -6.296875 C 28.75 -4.992188 27.28125 -3.800781 25.5 -2.71875 C 23.726562 -1.632812 21.789062 -0.726562 19.6875 0 C 17.582031 0.726562 15.585938 1.09375 13.703125 1.09375 C 10.804688 1.09375 8.394531 0.273438 6.46875 -1.359375 C 4.550781 -2.992188 3.59375 -5.078125 3.59375 -7.609375 C 3.59375 -8.703125 3.703125 -9.753906 3.921875 -10.765625 Z M 22.078125 -62.546875 C 24.617188 -62.546875 26.648438 -61.875 28.171875 -60.53125 C 29.691406 -59.1875 30.453125 -57.425781 30.453125 -55.25 C 30.453125 -53.945312 30.125 -52.710938 29.46875 -51.546875 C 28.820312 -50.390625 27.914062 -49.375 26.75 -48.5 C 25.59375 -47.632812 24.269531 -46.929688 22.78125 -46.390625 C 21.300781 -45.847656 19.757812 -45.578125 18.15625 -45.578125 C 15.84375 -45.578125 13.992188 -46.226562 12.609375 -47.53125 C 11.234375 -48.832031 10.546875 -50.570312 10.546875 -52.75 C 10.546875 -54.050781 10.851562 -55.28125 11.46875 -56.4375 C 12.09375 -57.601562 12.945312 -58.640625 14.03125 -59.546875 C 15.113281 -60.453125 16.34375 -61.175781 17.71875 -61.71875 C 19.101562 -62.269531 20.554688 -62.546875 22.078125 -62.546875 Z M 22.078125 -62.546875 "/></g></g></g><g fill="#5658cb" fill-opacity="1"><g transform="translate(214.043707, 210.074436)"><g><path d="M 33.28125 -41.21875 C 35.457031 -41.21875 36.546875 -40.203125 36.546875 -38.171875 C 36.546875 -37.015625 36.378906 -35.835938 36.046875 -34.640625 C 35.722656 -33.441406 35.34375 -32.554688 34.90625 -31.984375 C 34.113281 -31.109375 32.882812 -30.671875 31.21875 -30.671875 L 25.453125 -30.671875 C 25.015625 -28.859375 24.597656 -27.097656 24.203125 -25.390625 C 23.804688 -23.691406 23.476562 -22.113281 23.21875 -20.65625 C 22.96875 -19.207031 22.75 -17.957031 22.5625 -16.90625 C 22.382812 -15.863281 22.296875 -15.125 22.296875 -14.6875 C 22.296875 -13.300781 22.726562 -12.226562 23.59375 -11.46875 C 24.46875 -10.707031 25.664062 -10.328125 27.1875 -10.328125 C 27.769531 -10.328125 28.382812 -10.414062 29.03125 -10.59375 C 29.6875 -10.78125 30.523438 -11.054688 31.546875 -11.421875 C 32.484375 -11.859375 33.316406 -12.078125 34.046875 -12.078125 C 35.203125 -12.078125 35.78125 -11.457031 35.78125 -10.21875 C 35.78125 -8.332031 33.929688 -6.085938 30.234375 -3.484375 C 28.347656 -2.097656 26.191406 -1.023438 23.765625 -0.265625 C 21.335938 0.492188 18.960938 0.875 16.640625 0.875 C 12.867188 0.875 9.75 -0.15625 7.28125 -2.21875 C 4.820312 -4.289062 3.59375 -6.882812 3.59375 -10 C 3.59375 -10.726562 3.609375 -11.398438 3.640625 -12.015625 C 3.679688 -12.628906 3.804688 -13.367188 4.015625 -14.234375 C 4.234375 -15.109375 4.5625 -16.234375 5 -17.609375 C 5.4375 -18.992188 6.019531 -20.847656 6.75 -23.171875 C 7.320312 -24.984375 7.734375 -26.359375 7.984375 -27.296875 C 8.242188 -28.242188 8.519531 -29.367188 8.8125 -30.671875 C 6.269531 -30.960938 5 -32.160156 5 -34.265625 C 5 -34.910156 5.109375 -35.523438 5.328125 -36.109375 C 5.546875 -36.691406 5.976562 -37.363281 6.625 -38.125 C 7.28125 -38.882812 8.222656 -39.804688 9.453125 -40.890625 C 10.691406 -41.984375 12.328125 -43.363281 14.359375 -45.03125 C 17.984375 -48.070312 20.882812 -50.265625 23.0625 -51.609375 C 25.238281 -52.953125 26.941406 -53.625 28.171875 -53.625 C 28.898438 -53.625 29.5 -53.382812 29.96875 -52.90625 C 30.4375 -52.4375 30.671875 -51.84375 30.671875 -51.125 C 30.671875 -50.976562 30.671875 -50.832031 30.671875 -50.6875 C 30.671875 -50.539062 30.613281 -50.285156 30.5 -49.921875 C 30.394531 -49.554688 30.234375 -49.007812 30.015625 -48.28125 C 29.796875 -47.5625 29.472656 -46.550781 29.046875 -45.25 C 28.679688 -44.007812 28.460938 -43.191406 28.390625 -42.796875 C 28.316406 -42.398438 28.207031 -41.875 28.0625 -41.21875 Z M 33.28125 -41.21875 "/></g></g></g><g fill="#5658cb" fill-opacity="1"><g transform="translate(244.385767, 210.074436)"><g><path d="M 21.96875 -14.796875 C 21.96875 -13.554688 22.492188 -12.5 23.546875 -11.625 C 24.597656 -10.757812 25.882812 -10.328125 27.40625 -10.328125 C 28.425781 -10.328125 29.390625 -10.414062 30.296875 -10.59375 C 31.203125 -10.78125 32.195312 -11.09375 33.28125 -11.53125 C 34.363281 -11.96875 35.578125 -12.546875 36.921875 -13.265625 C 38.265625 -13.992188 39.878906 -14.898438 41.765625 -15.984375 C 42.640625 -16.492188 43.507812 -16.75 44.375 -16.75 C 45.101562 -16.75 45.703125 -16.515625 46.171875 -16.046875 C 46.640625 -15.578125 46.875 -15.015625 46.875 -14.359375 C 46.875 -11.960938 44.914062 -9.207031 41 -6.09375 C 34.625 -1.019531 27.988281 1.515625 21.09375 1.515625 C 18.34375 1.515625 15.84375 1.078125 13.59375 0.203125 C 11.34375 -0.660156 9.382812 -1.890625 7.71875 -3.484375 C 6.050781 -5.078125 4.765625 -6.960938 3.859375 -9.140625 C 2.953125 -11.316406 2.5 -13.707031 2.5 -16.3125 C 2.5 -19.71875 3.273438 -22.976562 4.828125 -26.09375 C 6.390625 -29.21875 8.492188 -31.957031 11.140625 -34.3125 C 13.796875 -36.664062 16.863281 -38.550781 20.34375 -39.96875 C 23.820312 -41.382812 27.484375 -42.09375 31.328125 -42.09375 C 35.460938 -42.09375 38.851562 -41.039062 41.5 -38.9375 C 44.144531 -36.832031 45.46875 -34.113281 45.46875 -30.78125 C 45.46875 -28.164062 44.503906 -25.753906 42.578125 -23.546875 C 40.660156 -21.335938 37.851562 -19.472656 34.15625 -17.953125 C 32.414062 -17.148438 30.421875 -16.53125 28.171875 -16.09375 C 25.921875 -15.65625 23.851562 -15.4375 21.96875 -15.4375 Z M 23.0625 -25.234375 C 28.863281 -26.097656 31.765625 -27.726562 31.765625 -30.125 C 31.765625 -30.851562 31.546875 -31.453125 31.109375 -31.921875 C 30.671875 -32.390625 30.125 -32.625 29.46875 -32.625 C 28.09375 -32.625 26.820312 -31.9375 25.65625 -30.5625 C 24.5 -29.1875 23.632812 -27.410156 23.0625 -25.234375 Z M 23.0625 -25.234375 "/></g></g></g><g clip-path="url(#395b33598d)"><path fill="#cb6ce6" d="M 60.414062 154.71875 L 62.597656 159.132812 C 62.9375 159.820312 63.589844 160.296875 64.347656 160.40625 L 69.222656 161.113281 C 71.128906 161.390625 71.890625 163.738281 70.511719 165.082031 L 66.984375 168.527344 C 66.4375 169.0625 66.183594 169.832031 66.3125 170.589844 L 67.144531 175.441406 C 67.46875 177.34375 65.472656 178.792969 63.765625 177.894531 L 59.410156 175.601562 C 58.730469 175.246094 57.921875 175.246094 57.246094 175.601562 L 52.886719 177.890625 C 51.183594 178.785156 49.179688 177.335938 49.511719 175.433594 L 50.339844 170.582031 C 50.46875 169.832031 50.222656 169.058594 49.671875 168.519531 L 46.144531 165.082031 C 44.761719 163.738281 45.527344 161.390625 47.433594 161.113281 L 52.304688 160.40625 C 53.0625 160.296875 53.71875 159.820312 54.058594 159.132812 L 56.238281 154.71875 C 57.09375 152.988281 59.558594 152.988281 60.414062 154.71875 Z M 60.414062 154.71875 " fill-opacity="1" fill-rule="nonzero"/></g><g clip-path="url(#cfb4e9afb1)"><path fill="#cb6ce6" d="M 45.800781 178.433594 L 46.890625 180.640625 C 47.0625 180.984375 47.390625 181.222656 47.765625 181.277344 L 50.203125 181.628906 C 51.15625 181.769531 51.539062 182.941406 50.847656 183.613281 L 49.085938 185.335938 C 48.8125 185.601562 48.683594 185.988281 48.75 186.367188 L 49.164062 188.789062 C 49.328125 189.742188 48.328125 190.464844 47.476562 190.015625 L 45.300781 188.871094 C 44.957031 188.691406 44.554688 188.691406 44.21875 188.871094 L 42.039062 190.015625 C 41.1875 190.460938 40.1875 189.738281 40.351562 188.789062 L 40.765625 186.363281 C 40.832031 185.988281 40.707031 185.601562 40.433594 185.332031 L 38.667969 183.613281 C 37.980469 182.941406 38.359375 181.769531 39.3125 181.628906 L 41.75 181.277344 C 42.128906 181.222656 42.453125 180.984375 42.625 180.640625 L 43.714844 178.433594 C 44.140625 177.570312 45.375 177.570312 45.800781 178.433594 Z M 45.800781 178.433594 " fill-opacity="1" fill-rule="nonzero"/></g><g clip-path="url(#1efd4fc284)"><path fill="#cb6ce6" d="M 281.460938 118.140625 L 283.257812 121.785156 C 283.539062 122.347656 284.078125 122.746094 284.707031 122.835938 L 288.726562 123.417969 C 290.296875 123.648438 290.929688 125.582031 289.789062 126.691406 L 286.878906 129.535156 C 286.429688 129.976562 286.21875 130.609375 286.324219 131.234375 L 287.011719 135.238281 C 287.277344 136.808594 285.632812 138.003906 284.222656 137.261719 L 280.628906 135.371094 C 280.070312 135.074219 279.402344 135.074219 278.84375 135.371094 L 275.25 137.257812 C 273.839844 138 272.191406 136.804688 272.464844 135.234375 L 273.148438 131.230469 C 273.253906 130.609375 273.050781 129.972656 272.59375 129.53125 L 269.683594 126.691406 C 268.546875 125.582031 269.175781 123.648438 270.75 123.417969 L 274.769531 122.835938 C 275.394531 122.746094 275.933594 122.347656 276.214844 121.785156 L 278.015625 118.140625 C 278.71875 116.714844 280.753906 116.714844 281.460938 118.140625 Z M 281.460938 118.140625 " fill-opacity="1" fill-rule="nonzero"/></g><g clip-path="url(#aafeaac6d0)"><path fill="#cb6ce6" d="M 308.988281 216.371094 L 310.078125 218.578125 C 310.246094 218.917969 310.574219 219.160156 310.953125 219.214844 L 313.386719 219.566406 C 314.34375 219.707031 314.722656 220.878906 314.03125 221.550781 L 312.269531 223.273438 C 311.996094 223.539062 311.871094 223.921875 311.933594 224.300781 L 312.351562 226.726562 C 312.511719 227.679688 311.515625 228.402344 310.664062 227.953125 L 308.484375 226.808594 C 308.144531 226.628906 307.742188 226.628906 307.402344 226.808594 L 305.226562 227.949219 C 304.371094 228.398438 303.371094 227.675781 303.539062 226.722656 L 303.953125 224.300781 C 304.015625 223.921875 303.894531 223.539062 303.617188 223.269531 L 301.855469 221.550781 C 301.164062 220.878906 301.546875 219.707031 302.5 219.566406 L 304.933594 219.214844 C 305.3125 219.160156 305.640625 218.917969 305.808594 218.578125 L 306.902344 216.371094 C 307.328125 215.503906 308.558594 215.503906 308.988281 216.371094 Z M 308.988281 216.371094 " fill-opacity="1" fill-rule="nonzero"/></g></svg>